# xmcd CD database file
#
# Track frame offsets:
#	150
#	11595
#	31462
#	44845
#	57815
#	74012
#	83695
#	98700
#	117395
#	132227
#	144330
#	150517
#
# Disc length: 2197 seconds
#
# Revision: 0
# Processed by: cddbd v1.5.1PL0 Copyright (c) Steve Scherf et al.
# Submitted via: CDex 1.51
#
DISCID=a108930c
DTITLE=George Jones and Friends - Country Classics
DYEAR=1991
DGENRE=Country
TTITLE0=George Jones - No Show Jones
TTITLE1=The Bellamy Brothers - If I Said You Had A Beautiful Body
TTITLE2=Charlie Rich - Behind Closed Doors
TTITLE3=Lynn Anderson - I Never Promised You A Rose Garden
TTITLE4=The Bellamy Brothers - Redneck Girl
TTITLE5=The Bellamy Brothers - Sugar Daddy
TTITLE6=George Jones - I Always Get Lucky With You
TTITLE7=Charlie Rich - Lets Take It Nice And Easy
TTITLE8=Jeannie C. Riley - Harper Valley PTA
TTITLE9=George Jones - She's My Rock
TTITLE10=George Jones - Chicken Reel
TTITLE11=George Jones - Who's Gonna Fill Their Shoes
EXTD=YEAR: 1991
EXTT0=
EXTT1=
EXTT2=
EXTT3=
EXTT4=
EXTT5=
EXTT6=
EXTT7=
EXTT8=
EXTT9=
EXTT10=
EXTT11=
PLAYORDER=
